<svg width="94" height="27" viewBox="0 0 94 27" fill="none" xmlns="http://www.w3.org/2000/svg">
<path d="M0 0H94V10C94 19.3888 86.3888 27 77 27H17C7.61116 27 0 19.3888 0 10V0Z" fill="url(#paint0_linear_4237_4286)"/>
<g filter="url(#filter0_d_4237_4286)">
<path d="M46.2929 4.70711C46.6834 4.31658 47.3166 4.31658 47.7071 4.70711L56.2929 13.2929C56.6834 13.6834 56.6834 14.3166 56.2929 14.7071L47.7071 23.2929C47.3166 23.6834 46.6834 23.6834 46.2929 23.2929L37.7071 14.7071C37.3166 14.3166 37.3166 13.6834 37.7071 13.2929L46.2929 4.70711Z" fill="url(#paint1_linear_4237_4286)"/>
</g>
<defs>
<filter id="filter0_d_4237_4286" x="34.4141" y="1.41406" width="25.1719" height="25.1719" filterUnits="userSpaceOnUse" color-interpolation-filters="sRGB">
<feFlood flood-opacity="0" result="BackgroundImageFix"/>
<feColorMatrix in="SourceAlpha" type="matrix" values="0 0 0 0 0 0 0 0 0 0 0 0 0 0 0 0 0 0 127 0" result="hardAlpha"/>
<feOffset/>
<feGaussianBlur stdDeviation="1.5"/>
<feComposite in2="hardAlpha" operator="out"/>
<feColorMatrix type="matrix" values="0 0 0 0 0 0 0 0 0 0 0 0 0 0 0 0 0 0 0.25 0"/>
<feBlend mode="normal" in2="BackgroundImageFix" result="effect1_dropShadow_4237_4286"/>
<feBlend mode="normal" in="SourceGraphic" in2="effect1_dropShadow_4237_4286" result="shape"/>
</filter>
<linearGradient id="paint0_linear_4237_4286" x1="91.65" y1="14.2641" x2="2.02176" y2="13.3793" gradientUnits="userSpaceOnUse">
<stop stop-color="#C29226"/>
<stop offset="0.168971" stop-color="#B27D0F"/>
<stop offset="0.388044" stop-color="#D9B14A"/>
<stop offset="0.590493" stop-color="#FADE7B"/>
<stop offset="0.759956" stop-color="#DAB74F"/>
<stop offset="1" stop-color="#C7972B"/>
</linearGradient>
<linearGradient id="paint1_linear_4237_4286" x1="37.5" y1="13.9532" x2="56.5001" y2="14.0071" gradientUnits="userSpaceOnUse">
<stop stop-color="#C29226"/>
<stop offset="0.168971" stop-color="#B27D0F"/>
<stop offset="0.388044" stop-color="#D9B14A"/>
<stop offset="0.590493" stop-color="#FADE7B"/>
<stop offset="0.759956" stop-color="#DAB74F"/>
<stop offset="1" stop-color="#C7972B"/>
</linearGradient>
</defs>
</svg>
